<svg height="64" viewBox="0 0 64 64" width="64" xmlns="http://www.w3.org/2000/svg"><path d="m0 64c0-21.33 0-42.67 0-64h64v64c-21.33 0-42.67 0-64 0zm4.61-13.5c17.54-3.45 33.86-6.67 51.32-10.1-10.99-4-45.93 2.57-51.32 10.1zm-4.21-11.64c.73.33 1.47.67 2.2 1 1.41-2.92 2.82-5.84 4.45-9.22.75 2.54 1.4 4.73 2.26 7.64 2.27-3.19 3.99-5.61 6.21-8.73-.2 3.77-.35 6.4-.52 9.67 3.69-2.32 5.49-13.44 3.68-18.95-2.73 3.58-5.29 6.92-8.39 10.99-.77-4-1.36-7.08-1.96-10.15-.47-.06-.95-.12-1.42-.17-2.17 5.97-4.34 11.95-6.51 17.92zm61.06-18.91c-7.19.2-13.42 2.71-17.82 8.47-1.14 1.49-1.57 4.9-.63 6.23 1.12 1.58 4.51 3.1 6.13 2.51 4.72-1.74 9.05-4.54 13.53-6.93-.21-.56-.43-1.12-.64-1.68-3.5.33-6.99.66-10.49.99-.02.32-.04.65-.06.97.9.36 1.81.72 2.71 1.08.02.43.04.87.05 1.3-2.93.43-5.87.86-8.8 1.28-.19-.56-.38-1.12-.57-1.68 3.22-7.05 10.94-8.42 16.58-12.53zm-21.52 13.32c-.25-.67-.5-1.33-.75-2-5.27.87-10.53 1.74-15.8 2.61-.27-.81-.54-1.62-.81-2.43 5.63-3.41 11.26-6.82 16.89-10.23-.19-.39-.38-.78-.57-1.18-5.08.86-9.7 3.37-13.54 6.67-2.34 2.01-5.16 6.03-4.57 8.32 1.21 4.7 5.89 2.16 9.02 1.6 3.47-.62 6.76-2.21 10.13-3.37z" fill="#fff"/><path d="m4.61 50.5c5.38-7.54 40.33-14.11 51.32-10.1-17.45 3.44-33.77 6.65-51.32 10.1z"/><path d="m.4 38.86c2.17-5.97 4.34-11.95 6.51-17.92.47.06.95.12 1.42.17.59 3.08 1.19 6.15 1.96 10.15 3.1-4.06 5.66-7.41 8.39-10.99 1.81 5.51.01 16.62-3.68 18.95.18-3.27.32-5.91.52-9.67-2.22 3.12-3.94 5.54-6.21 8.73-.86-2.91-1.51-5.1-2.26-7.64-1.63 3.38-3.04 6.3-4.45 9.22-.73-.33-1.47-.67-2.2-1z"/><path d="m61.46 19.95c-5.64 4.12-13.36 5.49-16.58 12.53.19.56.38 1.12.57 1.68 2.93-.43 5.87-.86 8.8-1.28-.02-.43-.04-.87-.05-1.3-.9-.36-1.81-.72-2.71-1.08.02-.32.04-.65.06-.97 3.5-.33 6.99-.66 10.49-.99.21.56.43 1.12.64 1.68-4.48 2.39-8.81 5.19-13.53 6.93-1.62.6-5.01-.92-6.13-2.51-.94-1.33-.51-4.75.63-6.23 4.41-5.76 10.63-8.27 17.82-8.47z"/><path d="m39.94 33.27c-3.37 1.16-6.67 2.75-10.13 3.37-3.12.56-7.8 3.1-9.02-1.6-.59-2.29 2.23-6.32 4.57-8.32 3.84-3.3 8.46-5.8 13.54-6.67.19.39.38.78.57 1.18-5.63 3.41-11.26 6.82-16.89 10.23.27.81.54 1.62.81 2.43 5.27-.87 10.53-1.74 15.8-2.61.25.67.5 1.33.75 2z"/></svg>