<svg viewBox="0 0 184 92" xmlns="http://www.w3.org/2000/svg"><path d="m30.283.962-6.539 20.272-6.833-20.272h-8.603v27.653h5.086v-21.895l7.455 21.895h5.376l7.11-21.895v21.895h5.22v-27.653z"/><path d="m99.118 90.681h4.759l3.632-13.002h.077l3.52 13.002h4.795l5.929-19.799h-5.111l-3.404 12.679h-.077l-3.52-12.668h-4.486l-3.328 12.668h-.076l-3.27-12.668h-5.238z"/><path d="m84.863281 70.320312c-5.787 0-9.783203 4.561454-9.783203 10.439454l-.001953-.017578c0 5.932 3.714062 10.535156 10.289063 10.535156 5.103999 0 8.246656-2.976094 8.972656-6.496094h-5.183594c-.582 1.512-1.780078 2.4375-3.830078 2.4375-2.978 0-4.681406-1.895172-5.066406-4.951172h14.386718c0-7.077-3.403203-11.947266-9.783203-11.947266zm.080078 4.060547c2.398 0 4.056891 1.739907 4.212891 4.253907h-8.814453c.465-2.591 1.815562-4.253907 4.601562-4.253907z"/><path d="m68.661 69.498h5.26v-4.723h-5.26v4.725z"/><path d="m68.661 90.7h5.26v-19.818h-5.26z"/><path d="m55.51 90.7h5.028l7.364-19.843h-5.257l-4.54 13.441h-.077l-4.494-13.416h-5.347l7.322 19.818z"/><path d="m39.935547 70.339844c-5.787 0-9.78125 4.561453-9.78125 10.439453l-.001953-.017578c0 5.932 3.712109 10.535156 10.287109 10.535156 5.105 0 8.246656-2.976094 8.972656-6.496094h-5.18164c-.582 1.512-1.780078 2.4375-3.830078 2.4375-2.978 0-4.68336-1.896172-5.06836-4.951172h14.388672c0-7.078-3.402156-11.947265-9.785156-11.947265zm.080078 4.060547c2.398 0 4.058844 1.739906 4.214844 4.253906h-8.816407c.465-2.59 1.815563-4.253906 4.601563-4.253906z"/><path d="m8.3085938 63.070312v27.648438h5.4902342v-10.673828h5.5v.001953l6.429688 10.671875h6.175781l-6.902344-11.392578c3.481-1.159 5.470703-3.801875 5.470703-7.671875a8.25 8.25 0 0 0 -2.474609-5.994141c-1.623-1.664-3.708422-2.589844-7.232422-2.589844zm5.4902342 4.871094h6.820313c2.776 0 4.361328 1.237953 4.361328 3.751953 0 2.438-1.50336 3.789063-4.44336 3.789063h-6.738281z"/><path d="m166.089 66.171h3.096c4.021 0 5.492-1.583 7-5.994l6.924-20.343h-5.311l-2.786 8.933c-.618 1.816-1.16 4.33-1.16 4.33h-.072s-.657-2.514-1.275-4.33l-2.939-8.933h-5.536l5.336 14.117c1.123 3.015 1.508 4.294 1.508 5.376 0 1.624-.85 2.707-2.94 2.707h-1.855z"/><path d="m152.72852 39.28125c-5.028 0-8.58399 3.789031-8.58399 9.707031 0 5.995 4.33024 9.47461 8.74024 9.47461a6.412 6.412 0 0 0 5.18359-2.322266h.11523v2.179687c0 2.706-1.43015 4.138672-4.41015 4.138672-2.448 0-3.5711-.965078-3.9961-2.205078h-5.20507c.542 3.854 3.86825 6.175782 9.28125 6.175782 2.939 0 5.49029-.695188 7.15429-2.242188 1.468-1.355 2.35742-3.251156 2.35742-6.035156v-18.330078h-5.06835v2.08789h-.07618c-1.199-1.663-3.01818-2.628906-5.49218-2.628906zm.99414 4.228516c3.175 0 4.72265 2.469953 4.72265 5.376953l-.00195-.003907c0 2.939-1.35169 5.376954-4.67969 5.376954-2.706 0-4.48633-2.011938-4.48633-5.335938s1.77532-5.414062 4.44532-5.414062z"/><path d="m132.99805 39.296875c-6.15 0-10.36328 4.561516-10.36328 10.478516v.001953c0 5.906 4.21328 10.480468 10.36328 10.480468 6.151.000001 10.36523-4.564421 10.36523-10.482421 0-5.917-4.21523-10.478516-10.36523-10.478516zm0 3.984375c3.212 0 5.02734 2.626141 5.02734 6.494141 0 3.87-1.77934 6.460937-5.02734 6.460937s-5.02735-2.582984-5.02735-6.458984 1.81635-6.496094 5.02735-6.496094z"/><path d="m116.273 59.676h5.26v-27.66h-5.242z"/><path d="m104.83984 39.296875c-6.149996 0-10.363278 4.561516-10.363278 10.478516v.001953c0 5.906 4.213282 10.480468 10.363278 10.480468 6.151.000001 10.36524-4.564421 10.36524-10.482421 0-5.917-4.21524-10.478516-10.36524-10.478516zm0 3.984375c3.212 0 5.0293 2.626094 5.0293 6.496094l-.00195-.001953c0 3.87-1.77935 6.460937-5.02735 6.460937s-5.02734-2.593984-5.02734-6.458984c0-3.866 1.81634-6.496094 5.02734-6.496094z"/><path d="m80.649 39.815h-5.13v19.84h5.261v-11.264c0-2.706 1.7-4.562 4.022-4.562 2.205 0 3.444 1.507 3.444 3.632v12.181h5.249v-12.928c0-4.33-2.746-7.425-6.844-7.425-2.707 0-4.523 1.122-5.878 3.247h-.116l-.008-2.72z"/><path d="m61.181 32.001h-5.242v27.653h5.26v-11.262c0-2.706 1.7-4.562 4.022-4.562 2.205 0 3.444 1.507 3.444 3.632v12.181h5.26v-12.929c0-4.33-2.746-7.425-6.844-7.425-2.707 0-4.33 1.042-5.762 3.131h-.116z"/><path d="m35.809 49.751c0 5.918 3.905 10.48 10.171 10.48 5.3 0 8.585-3.363 8.934-7.58h-5.068c-.364 2.244-1.857 3.363-3.996 3.363-3.212 0-4.723-2.514-4.723-6.267 0-3.828 1.624-6.266 4.795-6.266a3.633 3.633 0 0 1 3.633 3.055h5.145c-.697-4.294-3.869-7.266-9.01-7.266-6.033 0-9.899 4.563-9.899 10.481"/><path d="m25.037109 39.285156c-5.781805 0-9.776037 4.555419-9.783203 10.425782 0 .002639-.000001.005173 0 .007812-.000001.002638 0 .005174 0 .007812.006602 5.925351 3.719914 10.519532 10.289063 10.519532 5.104 0 8.246656-2.974141 8.972656-6.494141h-5.183594c-.582 1.507-1.780078 2.435547-3.830078 2.435547-2.979 0-4.681406-1.896172-5.066406-4.951172h14.384765c0-7.08-3.400203-11.951172-9.783203-11.951172zm.080079 4.058594c2.397999 0 4.05689 1.739906 4.21289 4.253906h-8.816406c.465-2.59 1.817515-4.253906 4.603516-4.253906z"/><path d="m46.994.962v4.723h8.959v22.935h5.26v-22.938h8.958v-4.723z"/><path d="m.004 32.016v4.722h8.312v22.934h5.296v-22.937h8.316v-4.723z"/><path d="m40.328.962h5.253v27.653h-5.253z"/></svg>