<svg viewBox="0 0 300 44.035" xmlns="http://www.w3.org/2000/svg"><g fill="#2566af"><circle cx="38.13" cy="5.906" r="5.287"/><circle cx="21.708" cy="5.906" r="5.288"/><circle cx="21.709" cy="38.748" r="5.287"/><path d="m24.362 17.759h.015c-1.195-.938-1.217-2.223-1.217-3.642s.022-2.705 1.217-3.643h-.015c1.574-.916 2.635-2.616 2.635-4.568 0-2.921-2.368-5.287-5.287-5.287-1.953 0-3.654 1.061-4.569 2.634v-.015c-.938 1.194-2.223 1.216-3.642 1.216s-2.704-.021-3.641-1.216v.015c-.918-1.573-2.618-2.634-4.57-2.634-2.921 0-5.288 2.366-5.288 5.287 0 2.92 2.367 5.287 5.288 5.287 1.952 0 3.653-1.062 4.569-2.635v.016c.938-1.195 2.222-1.218 3.641-1.218s2.704.022 3.642 1.218v-.015c.461.793 1.123 1.454 1.917 1.916h-.016c1.195.938 1.216 2.224 1.216 3.643s-.021 2.704-1.216 3.642h.014c-1.573.916-2.634 2.616-2.634 4.568 0 2.919 2.367 5.286 5.288 5.286 2.919 0 5.287-2.367 5.287-5.286 0-1.953-1.06-3.653-2.634-4.569z"/></g><circle cx="5.287" cy="22.327" fill="#b8b9bb" r="5.287"/><path d="m40.76 34.092c-1.091-.93-1.122-2.178-1.122-3.553 0-1.379.03-2.627 1.126-3.559 1.654-.893 2.778-2.643 2.778-4.653 0-2.92-2.367-5.287-5.287-5.287s-5.288 2.367-5.288 5.287c0 1.952 1.062 3.653 2.637 4.569h-.084c1.194.938 1.216 2.223 1.216 3.643 0 1.418-.021 2.703-1.216 3.641h.082c-1.573.916-2.634 2.617-2.634 4.568 0 2.92 2.368 5.287 5.288 5.287s5.287-2.367 5.287-5.287c-.001-2.014-1.127-3.764-2.783-4.656z" fill="#b8b9bb"/><circle cx="5.287" cy="38.748" fill="#b8b9bb" r="5.287"/><g fill="#2566af"><path d="m78.754 38.746c-11.062 0-12.037-4.068-12.037-9.285v-25.564h4.299v6.707h19.832v3.382h-19.832v14.902c0 3.84.172 6.42 7.738 6.42 7.624 0 7.795-2.58 7.795-6.42v-9.114h4.299v9.687c0 5.217-.859 9.285-12.094 9.285z"/><path d="m121.17 29.92c0 4.586-1.146 8.826-12.496 8.826s-12.553-4.068-12.553-9.285v-10.029c0-5.217 1.204-9.344 12.553-9.344 11.292 0 12.496 4.127 12.496 9.344v6.074h-20.75v3.383c0 3.84.401 6.477 8.254 6.477s8.196-2.809 8.196-6.018v-.287h4.299v.859zm-12.496-16.45c-7.853 0-8.254 2.693-8.254 6.534v2.063h16.45v-2.063c.001-3.841-.343-6.534-8.196-6.534z"/><path d="m138.88 38.746c-11.35 0-12.553-4.068-12.553-9.285v-10.029c0-5.217 1.204-9.344 12.553-9.344 11.291 0 12.495 4.127 12.495 9.344v1.089h-4.299v-.517c0-3.841-.344-6.534-8.196-6.534-7.853 0-8.254 2.693-8.254 6.534v8.885c0 3.84.401 6.477 8.254 6.477 7.852 0 8.196-2.637 8.196-6.477v-.918h4.299v1.49c0 5.217-1.204 9.285-12.495 9.285z"/><path d="m177.46 38.23v-17.71c0-4.471-.746-6.764-8.197-6.764-6.019 0-8.14 2.063-8.14 6.993v17.48h-4.299v-38.229h4.299v13.355c1.72-1.604 4.528-3.268 8.942-3.268 10.145 0 11.693 4.185 11.693 9.63v18.513z"/></g><g fill="#b8b9bb"><path d="m209.5 38.23v-2.694c-1.547 1.662-4.642 3.324-9.515 3.324-10.947 0-13.24-4.242-13.24-9.916v-9.054c0-5.675 2.293-9.916 13.24-9.916 4.7 0 7.739 1.548 9.286 3.096v-13.07h8.197v38.23zm-.228-17.423c0-3.611-.859-5.503-7.164-5.503-6.306 0-7.223 1.892-7.223 5.503v7.223c0 3.553.917 5.502 7.223 5.502 6.305 0 7.164-1.949 7.164-5.502z"/><path d="m222.79 7.738v-7.738h8.197v7.738zm0 30.492v-27.626h8.197v27.626z"/><path d="m257.24 26.08v-5.216c0-3.555-1.205-5.503-6.421-5.503-4.871 0-6.305 3.21-6.305 6.477v16.392h-8.196v-27.626h7.967v2.693c.517-.688 3.268-3.324 8.483-3.324 10.604 0 12.61 4.814 12.61 9.916v6.19h-8.138z"/><path d="m284.75 38.861c-13.814 0-15.189-4.584-15.189-9.973v-24.991h8.139v6.707h22.297v5.445h-22.239v11.749c0 3.611.458 5.789 6.992 5.789 6.592 0 7.051-2.178 7.051-5.789v-7.68h8.196v8.77c0 5.389-1.376 9.973-15.247 9.973z"/></g></svg>